<svg xmlns="http://www.w3.org/2000/svg" id="Layer_1" viewBox="0 0 407.3 54.46">
  <style>
    .st0{fill:#193354}.st1{fill:#f37a6d}
  </style>
  <path d="M87.34 12.08c-4.21-.25-6.77 2.18-8.74 4.58l-.13.16.2-3.63a.85.85 0 0 0-.3-.7.86.86 0 0 0-.74-.18l-10.01 2.26a.85.85 0 0 0-.66.83v1.41c0 .38.25.71.62.82 3.78 1.09 3.78 1.09 3.78 5v3.72c.01 3.01.01 6.02-.02 9.02-.03 2.78-.53 3.26-3.58 3.43-.45.03-.8.4-.8.85v1.76c0 .47.38.85.85.85h14.76c.47 0 .85-.38.85-.85v-1.58a.85.85 0 0 0-.72-.84c-3.85-.59-4-.75-4-4.41 0-.98-.02-1.96-.04-2.93-.04-2.19-.08-4.46.09-6.65.23-2.93 1.88-5.43 4.78-7.22.5-.31.76-.29.81-.27.04.02.17.18.23.65.21 1.79 1.41 2.82 3.29 2.82h.04c2.65-.02 3.66-1.48 4.05-2.7a4.58 4.58 0 0 0-.58-3.99 5.07 5.07 0 0 0-4.03-2.21zM181.22 15.53v-2.38c0-.26-.12-.5-.32-.66a.89.89 0 0 0-.72-.17l-2.09.46c-2.28.5-4.53 1-6.78 1.54-.72.18-1.42.97-1.48 1.67-.07.77.63 1.63 1.27 1.86 2.85 1 2.85 1 2.86 3.83v18.18c.01 2.66.01 5.32-.02 7.98-.02 2.32-.33 2.7-2.47 3.15-.47.1-1.13.3-1.5.87-.37.59-.22 1.22-.05 1.92.09.39.43.66.83.66h13.71c.36 0 .68-.23.8-.57.11-.31.44-1.26-.05-2.03-.5-.78-1.53-.88-1.87-.92-1.26-.12-1.95-.81-1.99-1.99-.07-2.06-.05-4.13-.04-6.26l.01-1.47 1.11.51c5.56 2.46 11.62 1.48 15.82-2.54a16.27 16.27 0 0 0 4.8-11.7 16.3 16.3 0 0 0-4.72-11.72c-5.07-4.93-11.93-5.01-17.11-.22zm12.12 19.34a5.92 5.92 0 0 1-4.93 3.6c-2.12.21-3.9-.25-5.16-1.34a5.93 5.93 0 0 1-1.92-4.34c-.06-1.19-.04-2.38-.03-3.57l.01-1.65-.01-.15v-3.71c0-1.71.91-3.4 2.49-4.65a7.02 7.02 0 0 1 5.89-1.45 5.87 5.87 0 0 1 4.32 4.08 16.71 16.71 0 0 1-.66 13.18zM233.63 28.05a.84.84 0 0 0 .84-.94l-.13-1.3a36.7 36.7 0 0 0-.28-2.34c-.96-5.81-3.75-9.34-8.52-10.78-5.59-1.68-10.67-.58-14.7 3.19-2.66 2.49-4.13 5.65-4.64 9.93-.59 4.98.8 9.49 3.92 12.68C213 41.43 217.05 43 221.68 43c.68 0 1.37-.03 2.07-.1 4.72-.46 8.17-2.95 10.55-7.64.2-.4.06-.88-.31-1.11l-.43-.27c-.31-.19-.57-.36-.84-.5-.27-.15-.57-.27-.84-.38l-.3-.12a.84.84 0 0 0-.94.18c-4.74 4.74-8.42 5.91-12.3 3.92-2.83-1.45-4.52-5.43-3.9-8.93h19.19zM217.4 17.76a5.5 5.5 0 0 1 4.19-1.2c1.17.11 2.28.75 3.14 1.8a7.56 7.56 0 0 1 1.62 4.88h-11.62c.37-2.44 1.28-4.32 2.67-5.48zM120.24 28.05a.84.84 0 0 0 .84-.94l-.12-1.33a22.9 22.9 0 0 0-.3-2.6c-1.06-5.63-3.81-9.06-8.41-10.46-5.53-1.7-10.57-.67-14.57 2.98-5.91 5.37-6.7 15.85-1.67 21.97 2.94 3.58 6.88 5.34 12.01 5.34.85 0 1.74-.05 2.66-.15 4.57-.48 7.93-2.97 10.27-7.61.2-.4.06-.89-.33-1.12l-.42-.25c-.37-.22-.72-.43-1.07-.62-.2-.11-.42-.21-.62-.3l-.22-.1a.84.84 0 0 0-.94.15c-5.05 4.77-8.5 5.89-12.3 3.99-2.85-1.42-4.46-5.11-3.98-8.96h19.17zM108 16.56c2.87.18 4.93 3.01 5 6.71h-11.64c.57-4.34 3.05-6.92 6.64-6.71zM149.43 33.22a.86.86 0 0 0-1.07.14l-.67.72c-.4.43-.76.83-1.15 1.2-2.23 2.14-5.01 3.05-7.64 2.5-2.5-.53-4.55-2.35-5.63-5a14.4 14.4 0 0 1 0-11.34c1.14-2.75 2.91-4.4 5.42-5.03a5.39 5.39 0 0 1 4.46.66c.58.38.55.71.41 1.64-.05.35-.1.69-.1 1.03 0 2.28 1.39 3.77 3.63 3.89 2.39.11 4.25-1.37 4.48-3.56.21-1.98-.57-3.69-2.38-5.21a12.85 12.85 0 0 0-8.94-2.99c-6.8.22-11.88 3.28-14.68 8.84-2.94 5.84-2.38 11.66 1.63 16.82a14.89 14.89 0 0 0 13.63 5.63c4.92-.54 9.04-3.37 11.01-7.55a.85.85 0 0 0-.32-1.09l-2.09-1.3z" class="st0"/>
  <path d="M170.39 39.5a.84.84 0 0 0-.68-.56c-3.41-.49-3.68-.8-3.7-4.1V13a.86.86 0 0 0-.33-.68.86.86 0 0 0-.74-.15l-1.51.42c-1.07.3-2.08.58-3.09.82-.59.14-1.19.24-1.78.34-.92.16-1.86.33-2.79.6-.64.19-.99.76-1.31 1.27a9.4 9.4 0 0 1-.38.57.86.86 0 0 0-.14.8c.09.27.32.48.6.55 4.11 1.02 4.11 1.02 4.11 4.66v3.43c0 3.3.01 6.6-.02 9.9-.02 2.45-.43 2.88-3.12 3.27-.2.03-.36.09-.52.15l-.21.08a.87.87 0 0 0-.58.88l.13 1.54c.04.44.41.78.85.78l3.84-.01c3.19 0 6.32-.01 9.45.02h.08c.58 0 1.36-.09 1.81-.7.5-.68.2-1.56.03-2.04z" class="st0"/>
  <path d="M305.34 38.53c-.64.36-1.58.65-2.21.45-.37-.12-.63-1.25-.55-1.89.27-2.02.73-4.02 1.09-6.04.7-3.91 1.68-7.79 1.99-11.73.28-3.59-2.44-5.82-6.22-5.79-3.14.02-5.67 1.43-7.75 3.43-2.08 1.99-3.87 4.24-5.91 6.51l1.92-9.9c-3.28.39-6.31.69-9.32 1.16-.55.09-.99.84-1.74 1.53l1.68.34c2.62.56 3.05 1.12 2.69 3.61-.22 1.55-.45 3.1-.71 4.64l-2.88 17.27c1.64 0 3.17.08 4.67-.05.39-.03.95-.69 1.03-1.13.47-2.42.81-4.87 1.22-7.3.9-5.36 3.28-9.99 7.75-13.48a16.24 16.24 0 0 1 4.41-2.44c2.29-.83 3.63.17 3.52 2.46-.06 1.31-.35 2.62-.59 3.92-.86 4.49-1.78 8.98-2.59 13.48-.31 1.69.09 3.29 1.67 4.34a4.7 4.7 0 0 0 5.22.23c1.93-1.17 3.66-2.63 5.64-4.08l-1.79-1.39c-.8.69-1.44 1.41-2.24 1.85zM250.65 5.28c-1.33 0-2.47.07-3.6-.02-1.39-.11-2.02.25-2.18 1.71-.26 2.43-.83 4.82-1.28 7.33h-3.18c-2.5 0-2.5 0-2.2 2.57h4.98c-.52 3.21-1.02 6.21-1.49 9.22-.59 3.8-1.35 7.59-1.68 11.42-.28 3.23 2.05 5.28 5.5 5.37 5.21.14 8.2-2.92 10.91-6.66l-1.2-.96c-1.89 1.43-3.46 2.97-5.36 3.96-2.49 1.31-4.4.11-4.18-2.52.23-2.81.72-5.6 1.16-8.39.6-3.79 1.26-7.56 1.92-11.46h8.09l.37-2.56h-8.02l1.44-9.01zM269.54 38.15c-.78.39-1.7.54-2.56.8-.23-.74-.74-1.52-.64-2.22.5-3.69 1.14-7.36 1.75-11.04.67-4.01 1.36-8.01 2.09-12.27l-10.25 1.3-.38 1.62c.43.05.74.08 1.04.13 2.63.38 3.27 1.2 2.85 3.63-.26 1.54-.5 3.08-.74 4.63-.7 4.39-1.6 8.76-2.02 13.18-.38 4.01 3.23 6.13 6.97 4.17 1.94-1.02 3.55-2.59 5.39-3.97l-1.66-1.48c-.7.6-1.19 1.2-1.84 1.52z" class="st1"/>
  <path d="M162.61 7.91c2.35-.04 3.95-1.74 3.92-4.17C166.5 1.29 165.1 0 162.51 0s-4.21 1.54-4.17 3.95c.04 2.48 1.69 4.01 4.27 3.96z" class="st0"/>
  <path d="M268.4 9.71c2.35-.04 3.95-1.74 3.92-4.17-.03-2.45-1.42-3.75-4.01-3.74-2.59 0-4.21 1.54-4.17 3.95.04 2.47 1.69 4 4.26 3.96z" class="st1"/>
  <path d="M336.27 15.77a10.88 10.88 0 0 0-4-2.89c-3.28-1.39-7.73-1.27-11.07.17a13.73 13.73 0 0 0-7.65 8.14 17.75 17.75 0 0 0-1.05 6.21c0 2.21.39 4.29 1.15 6.17a14.62 14.62 0 0 0 3.21 4.92 14.52 14.52 0 0 0 4.92 3.21 16.4 16.4 0 0 0 11.33.26 16.5 16.5 0 0 0 4.66-2.43c1.02-.74 1.25-1.81.6-3l-.43-.65c-.7-1.1-1.81-1.33-3.08-.55-.96.75-2.05 1.35-3.26 1.78a11.18 11.18 0 0 1-7.52-.15 9.3 9.3 0 0 1-3.13-2.07 9.32 9.32 0 0 1-2.06-3.22c-.4-1.02-.65-2.15-.75-3.36h19.19a2.3 2.3 0 0 0 1.6-.61c.45-.42.69-.98.69-1.62 0-2.11-.28-4.06-.85-5.78a13.02 13.02 0 0 0-2.5-4.53zm-17.84 8.01c.47-2 1.4-3.65 2.76-4.9a8.24 8.24 0 0 1 5.81-2.16c2.1 0 3.73.69 5 2.1a8.67 8.67 0 0 1 2.02 4.96h-15.59zM354.4 11.9c-1.63 0-3.29.24-4.92.71a17.84 17.84 0 0 0-4.41 1.9 2.2 2.2 0 0 0-1.06 1.38 2.2 2.2 0 0 0 .39 1.69l.33.55c.68 1.13 1.81 1.42 3.07.73a12.08 12.08 0 0 1 6.32-1.81c4.11 0 6.03 2.01 6.03 6.31l-.76.03c-5.56 0-9.94.89-13.02 2.64-3.23 1.84-4.87 4.47-4.87 7.81a8.43 8.43 0 0 0 2.92 6.49 9.95 9.95 0 0 0 3.27 1.85c1.25.44 2.63.66 4.08.66 1.87 0 3.5-.37 4.82-1.11 1.27-.7 2.32-1.49 3.13-2.36.19-.21.39-.44.57-.68v1.24c0 1.4.84 2.24 2.24 2.24h.89c1.36 0 2.18-.84 2.18-2.24V23.46c0-3.69-.98-6.57-2.9-8.55-1.91-2-4.71-3.01-8.3-3.01zm5.76 16.5c0 1.34-.22 2.61-.64 3.79a10.42 10.42 0 0 1-1.72 3.08 7.8 7.8 0 0 1-2.45 2c-.91.47-1.88.71-2.88.71-1.62 0-2.9-.42-3.91-1.29a3.97 3.97 0 0 1-1.45-3.19c0-1.77.94-3.09 2.85-4.04 2.09-1.03 5.29-1.55 9.5-1.55h.7v.49zM382.12 37.26c-1.73-.07-3-.63-3.9-1.72-.92-1.12-1.39-2.72-1.39-4.76V17.65h4.81c1.4 0 2.24-.82 2.24-2.18v-.44c0-1.4-.84-2.24-2.24-2.24h-4.81v-5.7c0-1.4-.82-2.24-2.18-2.24h-1c-1.4 0-2.24.84-2.24 2.24v5.7h-2.86c-1.37 0-2.18.84-2.18 2.24v.44c0 1.37.82 2.18 2.18 2.18h2.81v13.63c0 3.46.94 6.21 2.79 8.16 1.86 1.96 4.51 2.96 7.88 2.96 1.51 0 2.41-.82 2.41-2.18v-.72a2.1 2.1 0 0 0-.61-1.6c-.36-.33-.89-.54-1.71-.64zM406.02 29.8a10.78 10.78 0 0 0-2.98-2.68 18.87 18.87 0 0 0-3.74-1.74c-1.26-.43-2.44-.9-3.5-1.38a10.1 10.1 0 0 1-2.53-1.61 2.5 2.5 0 0 1-.83-1.97 3 3 0 0 1 1.13-2.5c.8-.65 1.99-.98 3.52-.98a10.07 10.07 0 0 1 5.53 1.65c.62.4 1.22.53 1.78.39.53-.13.97-.49 1.29-1.04l.4-.63c.67-1.13.43-2.24-.64-2.97a14.98 14.98 0 0 0-12.3-1.82c-1.27.4-2.37 1-3.29 1.77a8.23 8.23 0 0 0-2.88 6.31c0 1.74.43 3.18 1.29 4.29.8 1.04 1.81 1.93 3.01 2.65 1.16.69 2.41 1.29 3.73 1.76 1.25.46 2.43.93 3.52 1.42 1.02.46 1.89.99 2.56 1.58.55.48.82 1.1.82 1.89 0 1.1-.4 1.95-1.23 2.6-1.58 1.24-4.48 1.34-7.19.42-1.2-.41-2.29-1-3.34-1.81-1.71-1.01-2.68-.01-2.98.43l-.47.59c-.43.6-.6 1.19-.5 1.75.09.51.39.95.89 1.31a14.35 14.35 0 0 0 4.51 2.49c1.75.6 3.57.91 5.44.91 1.45 0 2.82-.21 4.07-.63a10.15 10.15 0 0 0 3.27-1.76 8.12 8.12 0 0 0 1.64-10.69z" class="st0"/>
  <path d="M311.49 28.05h4.97c1.21 0 2.18-.98 2.18-2.18v-.17c0-1.21-.98-2.18-2.18-2.18h-4.97c-1.21 0-2.18.98-2.18 2.18v.18c0 1.2.98 2.17 2.18 2.17z" class="st0"/>
  <g>
    <path d="M47.33 27.33H1.86c-1.02 0-1.83 1.13-1.83 2.55 0 .02-.02.02-.02.05-.14 3.52.97 6.79 2.93 9.32a24.6 24.6 0 0 0 2.98 4.02c12.07 13.11 32.9 8.96 40.75-5.05a13.55 13.55 0 0 0 2.5-8.28v-.05c.01-1.44-.83-2.56-1.84-2.56zM33.97 44.02c-.34.43-.83.7-1.4.7H16.62c-.56 0-1.06-.27-1.4-.7-.27-.32-.43-.7-.43-1.13 0-1.02.81-1.85 1.83-1.85h15.95c1.02 0 1.85.83 1.85 1.85 0 .43-.18.82-.45 1.13zm3.92-7.74h-26.6a1.84 1.84 0 0 1-1.85-1.83c0-1.02.83-1.85 1.85-1.85h26.6a1.84 1.84 0 1 1 0 3.68zM2.58 15.82c1.09.6 2.47.2 3.06-.89C9.12 8.59 15.94 4.77 23.89 4.71h.2c8.29 0 15.74 4.06 19.47 10.62a2.26 2.26 0 0 0 3.07.84 2.26 2.26 0 0 0 .84-3.08C42.95 5.12 34 .19 24.09.19h-.24C14.25.27 5.96 4.97 1.69 12.76c-.6 1.09-.2 2.46.89 3.06z" class="st1"/>
    <path d="M1.79 23.51H47.4a1.8 1.8 0 0 0 1.77-1.84v-.35a1.8 1.8 0 0 0-1.36-1.76v-.02a1.5 1.5 0 0 0-.37-.05l-.04-.01H35.84c-.6-1.68-1.38-3.3-2.16-4.9-.97-1.99-2.08-3.06-4.38-3.29-.64-.06-1.28-.1-1.92-.13-1.16-.04-2.31-.08-3.47-.09-1.16.01-2.31.04-3.47.09-.64.03-1.28.07-1.92.13a4.92 4.92 0 0 0-4.25 2.82 29.25 29.25 0 0 0-1.99 5.36H1.79l-.04.01a2.2 2.2 0 0 0-.37.05v.02a1.8 1.8 0 0 0-1.36 1.76v.35c0 1.02.79 1.85 1.77 1.85zm18.9-8.14h7.78c.95 0 1.41.68 1.73 1.58.11.3.63 2.51.8 2.51H18.18c.48-1.46.66-4.09 2.51-4.09z" class="st1"/>
  </g>
</svg>
